<?xml version="1.0" encoding="UTF-8" standalone="no"?>
<!-- Created with Inkscape (http://www.inkscape.org/) -->

<svg
   xmlns:dc="http://purl.org/dc/elements/1.1/"
   xmlns:cc="http://creativecommons.org/ns#"
   xmlns:rdf="http://www.w3.org/1999/02/22-rdf-syntax-ns#"
   xmlns:svg="http://www.w3.org/2000/svg"
   xmlns="http://www.w3.org/2000/svg"
   xmlns:sodipodi="http://sodipodi.sourceforge.net/DTD/sodipodi-0.dtd"
   xmlns:inkscape="http://www.inkscape.org/namespaces/inkscape"
   width="112.88889mm"
   height="112.88889mm"
   viewBox="0 0 399.99999 399.99999"
   id="svg4168"
   version="1.1"
   inkscape:version="0.91 r13725"
   sodipodi:docname="casecategory_open_source_intelligence.svg">
  <defs
     id="defs4170">
    <clipPath
       clipPathUnits="userSpaceOnUse"
       id="clipPath4760">
      <path
         d="M 504.28571,246.64792 A 200,200 0 0 1 304.77614,446.64732 200,200 0 0 1 104.28811,247.62879 200,200 0 0 1 302.81441,46.653331 200,200 0 0 1 504.27608,244.68621"
         sodipodi:open="true"
         sodipodi:end="6.2733766"
         sodipodi:start="0"
         sodipodi:ry="200"
         sodipodi:rx="200"
         sodipodi:cy="246.64792"
         sodipodi:cx="304.28571"
         sodipodi:type="arc"
         id="path4762"
         style="opacity:1;fill:#008000" />
    </clipPath>
  </defs>
  <sodipodi:namedview
     id="base"
     pagecolor="#ffffff"
     bordercolor="#666666"
     borderopacity="1.0"
     inkscape:pageopacity="0.0"
     inkscape:pageshadow="2"
     inkscape:zoom="0.7"
     inkscape:cx="83.524229"
     inkscape:cy="-132.94548"
     inkscape:document-units="px"
     inkscape:current-layer="layer1"
     showgrid="false"
     inkscape:object-nodes="false"
     inkscape:snap-global="true"
     inkscape:snap-others="false"
     inkscape:snap-nodes="true"
     showguides="true"
     inkscape:guide-bbox="true"
     inkscape:window-width="1920"
     inkscape:window-height="1137"
     inkscape:window-x="3832"
     inkscape:window-y="-8"
     inkscape:window-maximized="1"
     objecttolerance="10000"
     fit-margin-top="0"
     fit-margin-left="0"
     fit-margin-right="0"
     fit-margin-bottom="0" />
  <metadata
     id="metadata4173">
    <rdf:RDF>
      <cc:Work
         rdf:about="">
        <dc:format>image/svg+xml</dc:format>
        <dc:type
           rdf:resource="http://purl.org/dc/dcmitype/StillImage" />
        <dc:title></dc:title>
      </cc:Work>
    </rdf:RDF>
  </metadata>
  <g
     inkscape:label="Ebene 1"
     inkscape:groupmode="layer"
     id="layer1"
     transform="translate(-104.28571,-46.647919)">
    <path
       style="opacity:1;fill:#008000"
       id="path4180"
       sodipodi:type="arc"
       sodipodi:cx="304.28571"
       sodipodi:cy="246.64792"
       sodipodi:rx="200"
       sodipodi:ry="200"
       sodipodi:start="0"
       sodipodi:end="6.2733766"
       sodipodi:open="true"
       d="M 504.28571,246.64792 A 200,200 0 0 1 304.77614,446.64732 200,200 0 0 1 104.28811,247.62879 200,200 0 0 1 302.81441,46.653331 200,200 0 0 1 504.27608,244.68621" />
    <path
       style="opacity:0.3;fill:#000000;fill-opacity:1;fill-rule:evenodd;stroke:#000000;stroke-width:1px;stroke-linecap:butt;stroke-linejoin:miter;stroke-opacity:1"
       d="M 332.89425,90.332085 787.46218,544.90002 577.38654,789.26138 163.07895,374.95379 l 245.49248,-11.16301 -30,-38.57143 52.85714,-4.28572 24.28572,-35.71428 -25.71429,-40 -48.57143,1.42857 -27.14286,105.71428 -37.14285,-81.42857 17.14285,-70 z"
       id="path4210"
       inkscape:connector-curvature="0"
       clip-path="url(#clipPath4760)" />
    <path
       style="fill:#fefefe"
       d="m 163.94938,364.56811 c 0.47873,-5.71208 1.29351,-18.2169 1.81062,-27.7885 1.11611,-20.65925 3.79086,-31.09882 9.96139,-38.87943 2.35231,-2.9661 7.73084,-5.42137 34.06666,-15.55125 25.29253,-9.72858 32.38963,-12.93433 37.11039,-16.76268 9.30852,-7.54885 11.23955,-8.52309 16.89536,-8.52404 l 5.28544,-8.9e-4 -5.25335,-2.46569 c -8.48487,-3.98243 -19.9047,-15.81501 -25.29068,-26.20478 -4.75628,-9.17502 -9.01902,-23.87101 -10.35084,-35.68496 -0.718,-6.36903 -0.86005,-6.5864 -5.60394,-8.57572 -6.9433,-2.91164 -14.49103,-8.50318 -17.15934,-12.71208 -1.64,-2.58687 -2.29307,-5.6414 -2.29619,-10.73971 -0.006,-9.5048 3.25971,-14.08608 15.10436,-21.19017 5.43298,-3.25855 9.81834,-3.27132 12.04004,-0.035 5.21503,7.59653 14.901,13.35327 29.47066,17.51553 31.22159,8.91938 71.76453,2.22697 87.32116,-14.41409 3.21007,-3.43382 6.23726,-5.62767 7.76538,-5.62767 3.88214,0 14.77728,7.27274 18.70278,12.48452 2.90596,3.85816 3.53546,5.78319 3.53546,10.81169 0,10.60264 -4.69568,16.53087 -18.33235,23.14437 -5.3714,2.60503 -6.15185,3.43425 -6.74266,7.16399 -2.18138,13.77131 -4.50851,23.71058 -7.10715,30.35503 -5.79979,14.82944 -16.53241,27.40951 -28.5232,33.43302 l -5.25335,2.63898 5.441,0.0523 c 4.88602,0.0469 6.31491,0.73991 14.00893,6.79384 5.17816,4.07437 11.62285,7.89664 16.28952,9.66112 l 7.72158,2.91957 0.61867,8.68105 c 0.41649,5.84397 1.65275,11.03435 3.7828,15.88184 5.08042,11.56187 5.04355,12.29549 -0.81763,16.26884 -5.06344,3.43256 -26.90493,29.22548 -30.54212,36.0676 -2.50914,4.7201 -2.37677,8.78201 0.48382,14.84627 1.84512,3.91152 2.02562,5.15978 0.84992,5.87734 -0.821,0.50107 -38.47617,0.91879 -83.67816,0.92824 l -82.18541,0.0172 0.87043,-10.38561 z M 309.26852,257.36585 c 0.27353,-0.17804 -1.30248,0.28582 -3.50223,1.0308 -4.53805,1.5369 -21.22104,1.89628 -29.09888,0.62684 l -5.25335,-0.84653 9.33929,8.32216 9.33929,8.32214 9.33928,-8.56584 c 5.13661,-4.71121 9.56308,-8.71152 9.8366,-8.88957 z m 29.27166,116.59799 c -4.95521,-0.84199 -8.16727,-6.05214 -8.17006,-13.25232 -0.002,-6.94731 1.26722,-9.25327 12.83102,-23.29949 10.50243,-12.75699 16.46623,-18.57925 19.06868,-18.61611 0.75333,-0.0112 2.48493,-1.55522 3.84801,-3.43234 l 2.47832,-3.41295 -3.38165,-6.0048 c -7.07683,-12.56633 -7.16818,-33.30611 -0.20935,-47.53586 3.99947,-8.17831 14.26778,-17.9274 23.13523,-21.96538 14.65722,-6.67449 34.58836,-6.52039 49.16258,0.3801 7.8322,3.70833 21.05087,16.07706 21.95571,20.54399 3.22116,15.90191 3.42539,23.46546 1.15898,42.92098 -0.91448,7.85021 -4.48445,13.5582 -12.98554,20.76247 -6.39436,5.41891 -10.02967,7.40073 -17.66166,9.62844 -6.3577,1.85574 -26.90491,2.14047 -32.86744,0.45546 -3.81145,-1.07713 -4.28823,-0.91464 -7.28861,2.48381 -1.76571,1.99998 -3.21038,4.72171 -3.21038,6.04829 0,2.90835 -2.80283,6.97551 -15.21875,22.08365 -8.70039,10.58696 -9.8595,11.57911 -14.3426,12.27664 -5.83629,0.90806 -12.72124,0.88378 -18.30249,-0.0646 z m 86.11105,-64.38705 c 14.04854,-6.35107 22.26322,-21.59779 18.39178,-34.13579 -3.56353,-11.54084 -13.38572,-20.31613 -25.70853,-22.9684 -5.25664,-1.1314 -7.1035,-1.02659 -12.98419,0.73683 -12.59451,3.77668 -23.78332,17.55162 -23.78332,29.28048 0,8.07609 7.71078,20.31326 15.84691,25.14937 9.95825,5.91918 18.18177,6.48344 28.23735,1.93751 z m -56.7835,64.36249 c -1.96945,-1.19973 -1.86087,-1.37812 8.60872,-14.14293 11.56261,-14.09745 13.34392,-16.70919 14.19822,-20.81737 l 0.74935,-3.60346 6.53744,0.70493 c 3.59559,0.38773 9.21011,1.01266 12.47674,1.38876 l 5.93929,0.68383 1.49444,17.41032 c 1.25774,14.65299 1.24155,17.56439 -0.10227,18.38314 -2.0902,1.27352 -47.81035,1.26691 -49.90194,-0.007 z M 274.33259,157.0459 c -17.41689,-1.59309 -36.69561,-9.06322 -41.46777,-16.06794 -1.78199,-2.61565 -1.78621,-3.7402 -0.0566,-15.08307 2.42092,-15.87676 4.66195,-23.13228 9.12198,-29.533169 3.52743,-5.06245 3.81457,-5.21703 11.0077,-5.9258 12.35171,-1.21708 22.21845,0.22819 30.15307,4.4168 l 7.00722,3.69904 7.00171,-3.97398 c 6.94419,-3.94135 7.11993,-3.97511 21.39802,-4.10985 l 14.39633,-0.13585 3.27424,3.52414 c 5.90195,6.352409 11.71101,26.731079 11.71101,41.083169 0,4.77272 -0.51501,6.04038 -3.5685,8.78368 -7.61585,6.84222 -22.43753,11.61444 -41.65696,13.41254 -12.76401,1.19416 -14.33981,1.18917 -28.32142,-0.0897 z"
       id="path4204"
       inkscape:connector-curvature="0" />
  </g>
</svg>
