<?xml version="1.0" encoding="utf-8"?>
<!-- Generator: Adobe Illustrator 15.1.0, SVG Export Plug-In . SVG Version: 6.00 Build 0)  -->
<!DOCTYPE svg PUBLIC "-//W3C//DTD SVG 1.1//EN" "http://www.w3.org/Graphics/SVG/1.1/DTD/svg11.dtd">
<svg version="1.1" id="Layer_1" xmlns="http://www.w3.org/2000/svg" xmlns:xlink="http://www.w3.org/1999/xlink" x="0px" y="0px"
	 width="200px" height="200px" viewBox="0 0 200 200" enable-background="new 0 0 200 200" xml:space="preserve">
<g>
	<g>
		<circle fill="#ED3239" cx="100" cy="99.998" r="98.433"/>
	</g>
	<g>
		<g>
			<rect x="98.676" y="69.855" fill="#8D191B" width="60.97" height="5.962"/>
		</g>
		<g>
			<rect x="40.353" y="69.855" fill="#8D191B" width="19.88" height="5.962"/>
		</g>
		<g>
			<g>
				<rect x="40.353" y="109.99" fill="#8D191B" width="35.789" height="5.969"/>
			</g>
			<g>
				<rect x="82.108" y="109.99" fill="#8D191B" width="35.788" height="5.969"/>
			</g>
			<g>
				<rect x="123.859" y="109.99" fill="#8D191B" width="35.787" height="5.969"/>
			</g>
		</g>
		<g>
			<rect x="40.353" y="83.235" fill="#8D191B" width="15.245" height="5.962"/>
		</g>
		<g>
			<rect x="40.353" y="96.071" fill="#8D191B" width="17.563" height="5.968"/>
		</g>
		<g>
			<rect x="102.984" y="83.235" fill="#8D191B" width="56.662" height="5.962"/>
		</g>
		<g>
			<rect x="100.334" y="96.071" fill="#8D191B" width="59.313" height="5.968"/>
		</g>
		<g>
			<g>
				<rect x="123.859" y="123.206" fill="#8D191B" width="35.787" height="5.963"/>
			</g>
			<g>
				<rect x="40.353" y="123.539" fill="#8D191B" width="79.526" height="5.96"/>
			</g>
		</g>
		<g>
			<path fill="#FFFFFF" d="M65.809,83.257h-3.076v-9.792l-3.021,0.885v-2.331l5.815-2.013h0.282V83.257z"/>
			<path fill="#FFFFFF" d="M79.006,77.843c0,1.791-0.4,3.17-1.206,4.141c-0.802,0.971-1.936,1.458-3.397,1.458
				c-1.477,0-2.616-0.49-3.424-1.466c-0.805-0.978-1.208-2.354-1.208-4.133v-2.421c0-1.788,0.4-3.17,1.203-4.137
				c0.806-0.975,1.94-1.458,3.41-1.458c1.47,0,2.607,0.487,3.413,1.465c0.808,0.978,1.21,2.358,1.21,4.141V77.843z M75.941,75.032
				c0-0.952-0.125-1.665-0.375-2.133c-0.248-0.472-0.642-0.709-1.183-0.709c-0.528,0-0.912,0.219-1.151,0.656
				c-0.239,0.436-0.368,1.099-0.387,1.986v3.382c0,0.993,0.124,1.716,0.372,2.174c0.25,0.456,0.645,0.686,1.185,0.686
				c0.521,0,0.906-0.226,1.156-0.667c0.249-0.446,0.374-1.148,0.382-2.1V75.032z"/>
			<path fill="#FFFFFF" d="M87.397,83.257h-3.075v-9.792L81.3,74.35v-2.331l5.815-2.013h0.282V83.257z"/>
			<path fill="#FFFFFF" d="M98.193,83.257h-3.076v-9.792l-3.021,0.885v-2.331l5.815-2.013h0.282V83.257z"/>
			<path fill="#FFFFFF" d="M68.212,97.814c0,1.791-0.401,3.17-1.207,4.141c-0.803,0.976-1.936,1.458-3.397,1.458
				c-1.477,0-2.616-0.491-3.423-1.465c-0.806-0.978-1.209-2.356-1.209-4.134v-2.422c0-1.788,0.4-3.17,1.204-4.141
				c0.805-0.971,1.941-1.455,3.41-1.455c1.47,0,2.606,0.487,3.412,1.466c0.808,0.974,1.211,2.356,1.211,4.141V97.814z
				 M65.146,95.003c0-0.952-0.126-1.666-0.375-2.136c-0.249-0.468-0.643-0.704-1.183-0.704c-0.528,0-0.913,0.217-1.151,0.656
				c-0.24,0.438-0.368,1.097-0.387,1.982v3.387c0,0.989,0.124,1.714,0.372,2.17c0.25,0.458,0.646,0.69,1.186,0.69
				c0.521,0,0.905-0.225,1.156-0.671c0.25-0.446,0.375-1.147,0.382-2.099V95.003z"/>
			<path fill="#FFFFFF" d="M76.604,103.233h-3.076v-9.796l-3.021,0.884V91.99l5.815-2.014h0.282V103.233z"/>
			<path fill="#FFFFFF" d="M89.8,97.814c0,1.791-0.4,3.17-1.207,4.141c-0.803,0.976-1.935,1.458-3.397,1.458
				c-1.477,0-2.616-0.491-3.424-1.465c-0.806-0.978-1.208-2.356-1.208-4.134v-2.422c0-1.788,0.4-3.17,1.204-4.141
				c0.805-0.971,1.94-1.455,3.41-1.455c1.469,0,2.607,0.487,3.412,1.466c0.809,0.974,1.211,2.356,1.211,4.141V97.814z
				 M86.733,95.003c0-0.952-0.126-1.666-0.374-2.136c-0.25-0.468-0.643-0.704-1.183-0.704c-0.528,0-0.913,0.217-1.152,0.656
				c-0.239,0.438-0.367,1.097-0.386,1.982v3.387c0,0.989,0.123,1.714,0.372,2.17c0.25,0.458,0.645,0.69,1.185,0.69
				c0.521,0,0.905-0.225,1.156-0.671c0.25-0.446,0.375-1.147,0.381-2.099V95.003z"/>
			<path fill="#FFFFFF" d="M100.595,97.814c0,1.791-0.4,3.17-1.206,4.141c-0.803,0.976-1.936,1.458-3.397,1.458
				c-1.477,0-2.616-0.491-3.425-1.465c-0.805-0.978-1.208-2.356-1.208-4.134v-2.422c0-1.788,0.4-3.17,1.203-4.141
				c0.806-0.971,1.941-1.455,3.409-1.455c1.469,0,2.607,0.487,3.413,1.466c0.808,0.974,1.21,2.356,1.21,4.141V97.814z
				 M97.529,95.003c0-0.952-0.125-1.666-0.375-2.136c-0.249-0.468-0.642-0.704-1.183-0.704c-0.527,0-0.912,0.217-1.151,0.656
				c-0.239,0.438-0.367,1.097-0.386,1.982v3.387c0,0.989,0.123,1.714,0.372,2.17c0.249,0.458,0.644,0.69,1.185,0.69
				c0.521,0,0.905-0.225,1.156-0.671c0.249-0.446,0.375-1.147,0.381-2.099V95.003z"/>
		</g>
		<path fill-rule="evenodd" clip-rule="evenodd" fill="#FFFFFF" d="M128.593,140.139c-0.805,0-1.601-0.33-2.175-0.914L95.837,108.62
			l-1.198,0.854c-4.63,3.309-10.065,5.059-15.715,5.059c-14.984,0-27.164-12.259-27.164-27.328c0-15.075,12.18-27.346,27.164-27.346
			c14.985,0,27.174,12.271,27.174,27.346c0,5.681-1.745,11.149-5.038,15.818l-0.838,1.189l30.566,30.589
			c1.209,1.219,1.209,3.201,0,4.419C130.191,139.816,129.413,140.139,128.593,140.139z M78.924,66.089
			c-11.577,0-20.998,9.471-20.998,21.116c0,11.636,9.421,21.107,20.998,21.107c4.365,0,8.567-1.357,12.146-3.92l2.901-2.073
			l2.07-2.912c2.554-3.628,3.895-7.845,3.881-12.211C99.922,75.56,90.5,66.089,78.924,66.089z"/>
	</g>
</g>
</svg>
