<?xml version="1.0" encoding="UTF-8" standalone="no"?>
<!-- Created with Inkscape (http://www.inkscape.org/) -->

<svg
   xmlns:dc="http://purl.org/dc/elements/1.1/"
   xmlns:cc="http://creativecommons.org/ns#"
   xmlns:rdf="http://www.w3.org/1999/02/22-rdf-syntax-ns#"
   xmlns:svg="http://www.w3.org/2000/svg"
   xmlns="http://www.w3.org/2000/svg"
   xmlns:sodipodi="http://sodipodi.sourceforge.net/DTD/sodipodi-0.dtd"
   xmlns:inkscape="http://www.inkscape.org/namespaces/inkscape"
   sodipodi:docname="casecategory_networking.svg"
   inkscape:version="0.91 r13725"
   version="1.1"
   id="svg3566"
   viewBox="0 0 399.99999 400.00001"
   height="400"
   width="400">
  <sodipodi:namedview
     inkscape:window-maximized="1"
     inkscape:window-y="-8"
     inkscape:window-x="1912"
     inkscape:window-height="1137"
     inkscape:window-width="1920"
     units="px"
     showgrid="false"
     inkscape:current-layer="layer2"
     inkscape:document-units="px"
     inkscape:cy="41.33858"
     inkscape:cx="-434.26057"
     inkscape:zoom="0.5"
     inkscape:pageshadow="2"
     inkscape:pageopacity="0.0"
     borderopacity="1.0"
     bordercolor="#666666"
     pagecolor="#ffffff"
     id="base" />
  <defs
     id="defs3568">
    <clipPath
       clipPathUnits="userSpaceOnUse"
       id="clipPath11198">
      <ellipse
         id="circle11200"
         cy="10.057582"
         cx="10.382936"
         style="fill:#0050ef;fill-opacity:1"
         rx="12.978835"
         ry="13.023067" />
    </clipPath>
    <clipPath
       id="clipPath4845"
       clipPathUnits="userSpaceOnUse">
      <ellipse
         ry="371.13922"
         rx="371.37076"
         id="circle4847"
         cy="259.94751"
         cx="222.82246"
         style="display:inline;opacity:0.52999998;fill:#007aff;fill-opacity:1" />
    </clipPath>
    <clipPath
       clipPathUnits="userSpaceOnUse"
       id="clipPath6493">
      <ellipse
         id="circle6495"
         cy="121.5257"
         cx="107.28951"
         style="display:inline;fill:#007aff;fill-opacity:1"
         rx="153.27072"
         ry="142.3568" />
    </clipPath>
  </defs>
  <metadata
     id="metadata3571">
    <rdf:RDF>
      <cc:Work
         rdf:about="">
        <dc:format>image/svg+xml</dc:format>
        <dc:type
           rdf:resource="http://purl.org/dc/dcmitype/StillImage" />
        <dc:title />
      </cc:Work>
    </rdf:RDF>
  </metadata>
  <g
     transform="translate(0,-652.36216)"
     id="layer1"
     inkscape:groupmode="layer"
     inkscape:label="Layer 1"
     style="display:inline">
    <circle
       style="fill:#57169a;fill-opacity:1"
       r="200"
       cx="200"
       cy="852.36218"
       id="circle3938" />
  </g>
  <g
     transform="translate(0,-652.36216)"
     style="display:inline"
     inkscape:label="Layer 2"
     id="layer2"
     inkscape:groupmode="layer">
    <g
       transform="matrix(15.409704,0,0,15.357366,40.002034,697.90421)"
       id="g8885"
       style="fill:#ffffff" />
    <g
       transform="matrix(15.409704,0,0,15.357366,40.002034,697.90421)"
       id="g8887"
       style="fill:#ffffff" />
    <g
       transform="matrix(15.409704,0,0,15.357366,40.002034,697.90421)"
       id="g8889"
       style="fill:#ffffff" />
    <g
       transform="matrix(15.409704,0,0,15.357366,40.002034,697.90421)"
       id="g8891"
       style="fill:#ffffff" />
    <g
       transform="matrix(15.409704,0,0,15.357366,40.002034,697.90421)"
       id="g8893"
       style="fill:#ffffff" />
    <g
       transform="matrix(15.409704,0,0,15.357366,40.002034,697.90421)"
       id="g8895"
       style="fill:#ffffff" />
    <g
       transform="matrix(15.409704,0,0,15.357366,40.002034,697.90421)"
       id="g8897"
       style="fill:#ffffff" />
    <g
       transform="matrix(15.409704,0,0,15.357366,40.002034,697.90421)"
       id="g8899"
       style="fill:#ffffff" />
    <g
       transform="matrix(15.409704,0,0,15.357366,40.002034,697.90421)"
       id="g8901"
       style="fill:#ffffff" />
    <g
       transform="matrix(15.409704,0,0,15.357366,40.002034,697.90421)"
       id="g8903"
       style="fill:#ffffff" />
    <g
       transform="matrix(15.409704,0,0,15.357366,40.002034,697.90421)"
       id="g8905"
       style="fill:#ffffff" />
    <g
       transform="matrix(15.409704,0,0,15.357366,40.002034,697.90421)"
       id="g8907"
       style="fill:#ffffff" />
    <g
       transform="matrix(15.409704,0,0,15.357366,40.002034,697.90421)"
       id="g8909"
       style="fill:#ffffff" />
    <g
       transform="matrix(15.409704,0,0,15.357366,40.002034,697.90421)"
       id="g8911"
       style="fill:#ffffff" />
    <g
       transform="matrix(15.409704,0,0,15.357366,40.002034,697.90421)"
       id="g8913"
       style="fill:#ffffff" />
    <g
       style="fill:#ffffff"
       transform="matrix(1.3048807,0,0,1.4049206,60,681.62823)"
       id="g4403">
      <path
         style="fill:#ffffff"
         inkscape:connector-curvature="0"
         d="m 209.579,180.547 -5.651,0 0,-37.916 c 0,-2.762 -2.239,-5 -5,-5 l -35.349,0 c -0.365,-0.409 -0.786,-0.777 -1.292,-1.058 l -49.73,-27.572 0,-32.054 41.192,0 c 2.761,0 5,-2.238 5,-5 l 0,-5.714 c 0,-2.762 -2.239,-5 -5,-5 l -5.65,0 0,-37.916 c 0,-2.762 -2.239,-5 -5,-5 l -71.084,0 c -2.761,0 -5,2.238 -5,5 l 0,37.916 -5.65,0 c -2.761,0 -5,2.238 -5,5 l 0,5.714 c 0,2.762 2.239,5 5,5 l 41.192,0 0,32.055 -49.73,27.572 c -0.506,0.281 -0.927,0.649 -1.292,1.058 l -35.885,0 c -2.761,0 -5,2.238 -5,5 l 0,37.916 -5.65,0 c -2.761,0 -5,2.238 -5,5 l 0,5.715 c 0,2.762 2.239,5 5,5 l 92.384,0 c 2.761,0 5,-2.238 5,-5 l 0,-5.715 c 0,-2.762 -2.239,-5 -5,-5 l -5.65,0 0,-37.916 c 0,-2.762 -2.239,-5 -5,-5 l -15.191,0 36.014,-19.967 36.014,19.967 -15.726,0 c -2.761,0 -5,2.238 -5,5 l 0,37.916 -5.65,0 c -2.761,0 -5,2.238 -5,5 l 0,5.715 c 0,2.762 2.239,5 5,5 l 92.384,0 c 2.761,0 5,-2.238 5,-5 l 0,-5.715 c 0,-2.763 -2.239,-5.001 -5,-5.001 z M 77.015,28.317 l 61.083,0 0,32.01 -61.083,0 0,-32.01 z m 4.719,152.23 -61.084,0 0,-32.916 61.084,0 0,32.916 z m 51.111,-32.916 61.083,0 0,32.07 -61.083,0 0,-32.07 z"
         id="path4365" />
      <g
         style="fill:#ffffff"
         id="g4367" />
      <g
         style="fill:#ffffff"
         id="g4369" />
      <g
         style="fill:#ffffff"
         id="g4371" />
      <g
         style="fill:#ffffff"
         id="g4373" />
      <g
         style="fill:#ffffff"
         id="g4375" />
      <g
         style="fill:#ffffff"
         id="g4377" />
      <g
         style="fill:#ffffff"
         id="g4379" />
      <g
         style="fill:#ffffff"
         id="g4381" />
      <g
         style="fill:#ffffff"
         id="g4383" />
      <g
         style="fill:#ffffff"
         id="g4385" />
      <g
         style="fill:#ffffff"
         id="g4387" />
      <g
         style="fill:#ffffff"
         id="g4389" />
      <g
         style="fill:#ffffff"
         id="g4391" />
      <g
         style="fill:#ffffff"
         id="g4393" />
      <g
         style="fill:#ffffff"
         id="g4395" />
    </g>
    <g
       style="display:inline;fill:#ffffff"
       transform="matrix(1.3048807,0,0,1.4049206,60,681.62823)"
       id="g5490">
      <path
         style="fill:#ffffff"
         inkscape:connector-curvature="0"
         d="m 209.579,180.547 -5.651,0 0,-37.916 c 0,-2.762 -2.239,-5 -5,-5 l -35.349,0 c -0.365,-0.409 -0.786,-0.777 -1.292,-1.058 l -49.73,-27.572 0,-32.054 41.192,0 c 2.761,0 5,-2.238 5,-5 l 0,-5.714 c 0,-2.762 -2.239,-5 -5,-5 l -5.65,0 0,-37.916 c 0,-2.762 -2.239,-5 -5,-5 l -71.084,0 c -2.761,0 -5,2.238 -5,5 l 0,37.916 -5.65,0 c -2.761,0 -5,2.238 -5,5 l 0,5.714 c 0,2.762 2.239,5 5,5 l 41.192,0 0,32.055 -49.73,27.572 c -0.506,0.281 -0.927,0.649 -1.292,1.058 l -35.885,0 c -2.761,0 -5,2.238 -5,5 l 0,37.916 -5.65,0 c -2.761,0 -5,2.238 -5,5 l 0,5.715 c 0,2.762 2.239,5 5,5 l 92.384,0 c 2.761,0 5,-2.238 5,-5 l 0,-5.715 c 0,-2.762 -2.239,-5 -5,-5 l -5.65,0 0,-37.916 c 0,-2.762 -2.239,-5 -5,-5 l -15.191,0 36.014,-19.967 36.014,19.967 -15.726,0 c -2.761,0 -5,2.238 -5,5 l 0,37.916 -5.65,0 c -2.761,0 -5,2.238 -5,5 l 0,5.715 c 0,2.762 2.239,5 5,5 l 92.384,0 c 2.761,0 5,-2.238 5,-5 l 0,-5.715 c 0,-2.763 -2.239,-5.001 -5,-5.001 z M 77.015,28.317 l 61.083,0 0,32.01 -61.083,0 0,-32.01 z m 4.719,152.23 -61.084,0 0,-32.916 61.084,0 0,32.916 z m 51.111,-32.916 61.083,0 0,32.07 -61.083,0 0,-32.07 z"
         id="path5492" />
      <g
         style="fill:#ffffff"
         id="g5494" />
      <g
         style="fill:#ffffff"
         id="g5496" />
      <g
         style="fill:#ffffff"
         id="g5498" />
      <g
         style="fill:#ffffff"
         id="g5500" />
      <g
         style="fill:#ffffff"
         id="g5502" />
      <g
         style="fill:#ffffff"
         id="g5504" />
      <g
         style="fill:#ffffff"
         id="g5506" />
      <g
         style="fill:#ffffff"
         id="g5508" />
      <g
         style="fill:#ffffff"
         id="g5510" />
      <g
         style="fill:#ffffff"
         id="g5512" />
      <g
         style="fill:#ffffff"
         id="g5514" />
      <g
         style="fill:#ffffff"
         id="g5516" />
      <g
         style="fill:#ffffff"
         id="g5518" />
      <g
         style="fill:#ffffff"
         id="g5520" />
      <g
         style="fill:#ffffff"
         id="g5522" />
    </g>
    <g
       style="display:inline;fill:#310c58;fill-opacity:1"
       transform="matrix(1.3048807,0,0,1.4049206,60,681.62823)"
       id="g6020"
       clip-path="url(#clipPath6493)">
      <g
         style="fill:#310c58;fill-opacity:1"
         id="g6024" />
      <g
         style="fill:#310c58;fill-opacity:1"
         id="g6026" />
      <g
         style="fill:#310c58;fill-opacity:1"
         id="g6028" />
      <g
         style="fill:#310c58;fill-opacity:1"
         id="g6030" />
      <g
         style="fill:#310c58;fill-opacity:1"
         id="g6032" />
      <g
         style="fill:#310c58;fill-opacity:1"
         id="g6034" />
      <g
         style="fill:#310c58;fill-opacity:1"
         id="g6036" />
      <g
         style="fill:#310c58;fill-opacity:1"
         id="g6038" />
      <g
         style="fill:#310c58;fill-opacity:1"
         id="g6040" />
      <g
         style="fill:#310c58;fill-opacity:1"
         id="g6042" />
      <g
         style="fill:#310c58;fill-opacity:1"
         id="g6044" />
      <g
         style="fill:#310c58;fill-opacity:1"
         id="g6046" />
      <g
         style="fill:#310c58;fill-opacity:1"
         id="g6048" />
      <g
         style="fill:#310c58;fill-opacity:1"
         id="g6050" />
      <g
         style="fill:#310c58;fill-opacity:1"
         id="g6052" />
      <g
         id="g6147"
         style="fill:#310c58;fill-opacity:1">
        <g
           id="g6149"
           style="fill:#310c58;fill-opacity:1">
          <path
             id="path6151"
             d="m 209.579,180.547 -5.651,0 353.55339,353.55339 5.651,0 z"
             inkscape:connector-curvature="0"
             style="fill:#310c58;fill-opacity:1" />
          <path
             id="path6153"
             d="m 203.928,180.547 0,-37.916 353.55339,353.55339 0,37.916 z"
             inkscape:connector-curvature="0"
             style="fill:#310c58;fill-opacity:1" />
          <path
             id="path6155"
             d="m 203.928,142.631 c 0,-1.38087 -0.55965,-2.63077 -1.46438,-3.5355 l 353.55339,353.55339 c 0.90473,0.90473 1.46438,2.15463 1.46438,3.5355 z"
             inkscape:connector-curvature="0"
             style="fill:#310c58;fill-opacity:1" />
          <path
             id="path6157"
             d="m 202.46362,139.0955 c -0.90489,-0.9049 -2.155,-1.4645 -3.53562,-1.4645 l 353.55339,353.55339 c 1.38063,0 2.63073,0.5596 3.53562,1.4645 z"
             inkscape:connector-curvature="0"
             style="fill:#310c58;fill-opacity:1" />
          <path
             id="path6159"
             d="m 198.928,137.631 -35.349,0 353.55339,353.55339 35.349,0 z"
             inkscape:connector-curvature="0"
             style="fill:#310c58;fill-opacity:1" />
          <path
             id="path6161"
             d="m 163.579,137.631 c -0.0766,-0.0858 -0.15561,-0.1698 -0.23738,-0.25157 l 353.55339,353.55339 c 0.0818,0.0818 0.16081,0.16577 0.23738,0.25157 z"
             inkscape:connector-curvature="0"
             style="fill:#310c58;fill-opacity:1" />
          <path
             id="path6163"
             d="m 163.34162,137.37943 c -0.308,-0.30801 -0.65477,-0.58438 -1.05462,-0.80643 l 353.55339,353.55339 c 0.39985,0.22205 0.74662,0.49842 1.05462,0.80643 z"
             inkscape:connector-curvature="0"
             style="fill:#310c58;fill-opacity:1" />
          <path
             id="path6165"
             d="m 162.287,136.573 -49.73,-27.572 353.55339,353.55339 49.73,27.572 z"
             inkscape:connector-curvature="0"
             style="fill:#310c58;fill-opacity:1" />
          <path
             id="path6167"
             d="m 112.557,109.001 0,-32.054 353.55339,353.55339 0,32.054 z"
             inkscape:connector-curvature="0"
             style="fill:#310c58;fill-opacity:1" />
          <path
             id="path6169"
             d="m 112.557,76.947 41.192,0 353.55339,353.55339 -41.192,0 z"
             inkscape:connector-curvature="0"
             style="fill:#310c58;fill-opacity:1" />
          <path
             id="path6171"
             d="m 153.749,76.947 c 2.761,0 5,-2.238 5,-5 l 353.55339,353.55339 c 0,2.762 -2.239,5 -5,5 z"
             inkscape:connector-curvature="0"
             style="fill:#310c58;fill-opacity:1" />
          <path
             id="path6173"
             d="m 158.749,71.947 0,-5.714 353.55339,353.55339 0,5.714 z"
             inkscape:connector-curvature="0"
             style="fill:#310c58;fill-opacity:1" />
          <path
             id="path6175"
             d="m 158.749,66.233 c 0,-1.380875 -0.55965,-2.630774 -1.46438,-3.535504 L 510.83801,416.25089 c 0.90473,0.90473 1.46438,2.15463 1.46438,3.5355 z"
             inkscape:connector-curvature="0"
             style="fill:#310c58;fill-opacity:1" />
          <path
             id="path6177"
             d="M 157.28462,62.697496 C 156.37973,61.792601 155.12962,61.233 153.749,61.233 l 353.55339,353.55339 c 1.38063,0 2.63073,0.5596 3.53562,1.4645 z"
             inkscape:connector-curvature="0"
             style="fill:#310c58;fill-opacity:1" />
          <path
             id="path6179"
             d="m 153.749,61.233 -5.65,0 353.55339,353.55339 5.65,0 z"
             inkscape:connector-curvature="0"
             style="fill:#310c58;fill-opacity:1" />
          <path
             id="path6181"
             d="m 148.099,61.233 0,-37.916 353.55339,353.55339 0,37.916 z"
             inkscape:connector-curvature="0"
             style="fill:#310c58;fill-opacity:1" />
          <path
             id="path6183"
             d="m 148.099,23.317 c 0,-1.380875 -0.55965,-2.630774 -1.46438,-3.535504 L 500.18801,373.33489 c 0.90473,0.90473 1.46438,2.15463 1.46438,3.5355 z"
             inkscape:connector-curvature="0"
             style="fill:#310c58;fill-opacity:1" />
          <path
             id="path6185"
             d="M 146.63462,19.781496 C 145.72973,18.876601 144.47962,18.317 143.099,18.317 l 353.55339,353.55339 c 1.38063,0 2.63073,0.5596 3.53562,1.4645 z"
             inkscape:connector-curvature="0"
             style="fill:#310c58;fill-opacity:1" />
          <path
             id="path6187"
             d="m 143.099,18.317 -71.084,0 353.55339,353.55339 71.084,0 z"
             inkscape:connector-curvature="0"
             style="fill:#310c58;fill-opacity:1" />
          <path
             id="path6189"
             d="m 72.015,18.317 c -2.761,0 -5,2.238 -5,5 l 353.55339,353.55339 c 0,-2.762 2.239,-5 5,-5 z"
             inkscape:connector-curvature="0"
             style="fill:#310c58;fill-opacity:1" />
          <path
             id="path6191"
             d="m 67.015,23.317 0,37.916 353.55339,353.55339 0,-37.916 z"
             inkscape:connector-curvature="0"
             style="fill:#310c58;fill-opacity:1" />
          <path
             id="path6193"
             d="m 67.015,61.233 -5.65,0 353.55339,353.55339 5.65,0 z"
             inkscape:connector-curvature="0"
             style="fill:#310c58;fill-opacity:1" />
          <path
             id="path6195"
             d="m 61.365,61.233 c -2.761,0 -5,2.238 -5,5 l 353.55339,353.55339 c 0,-2.762 2.239,-5 5,-5 z"
             inkscape:connector-curvature="0"
             style="fill:#310c58;fill-opacity:1" />
          <path
             id="path6197"
             d="m 56.365,66.233 0,5.714 353.55339,353.55339 0,-5.714 z"
             inkscape:connector-curvature="0"
             style="fill:#310c58;fill-opacity:1" />
          <path
             id="path6199"
             d="m 56.365,71.947 c 0,1.380875 0.559649,2.630774 1.464379,3.535504 L 411.38277,429.03589 c -0.90473,-0.90473 -1.46438,-2.15462 -1.46438,-3.5355 z"
             inkscape:connector-curvature="0"
             style="fill:#310c58;fill-opacity:1" />
          <path
             id="path6201"
             d="M 57.829379,75.482504 C 58.734274,76.387399 59.984375,76.947 61.365,76.947 l 353.55339,353.55339 c -1.38062,0 -2.63073,-0.5596 -3.53562,-1.4645 z"
             inkscape:connector-curvature="0"
             style="fill:#310c58;fill-opacity:1" />
          <path
             id="path6203"
             d="m 61.365,76.947 41.192,0 353.55339,353.55339 -41.192,0 z"
             inkscape:connector-curvature="0"
             style="fill:#310c58;fill-opacity:1" />
          <path
             id="path6205"
             d="m 102.557,76.947 0,32.055 353.55339,353.55339 0,-32.055 z"
             inkscape:connector-curvature="0"
             style="fill:#310c58;fill-opacity:1" />
          <path
             id="path6207"
             d="m 102.557,109.002 -49.73,27.572 353.55339,353.55339 49.73,-27.572 z"
             inkscape:connector-curvature="0"
             style="fill:#310c58;fill-opacity:1" />
          <path
             id="path6209"
             d="m 52.827,136.574 c -0.506,0.281 -0.927,0.649 -1.292,1.058 l 353.55339,353.55339 c 0.365,-0.409 0.786,-0.777 1.292,-1.058 z"
             inkscape:connector-curvature="0"
             style="fill:#310c58;fill-opacity:1" />
          <path
             id="path6211"
             d="m 51.535,137.632 -35.885,0 353.55339,353.55339 35.885,0 z"
             inkscape:connector-curvature="0"
             style="fill:#310c58;fill-opacity:1" />
          <path
             id="path6213"
             d="m 15.65,137.632 c -2.761,0 -5,2.238 -5,5 l 353.55339,353.55339 c 0,-2.762 2.239,-5 5,-5 z"
             inkscape:connector-curvature="0"
             style="fill:#310c58;fill-opacity:1" />
          <path
             id="path6215"
             d="m 10.65,142.632 0,37.916 353.55339,353.55339 0,-37.916 z"
             inkscape:connector-curvature="0"
             style="fill:#310c58;fill-opacity:1" />
          <path
             id="path6217"
             d="m 10.65,180.548 -5.65,0 353.55339,353.55339 5.65,0 z"
             inkscape:connector-curvature="0"
             style="fill:#310c58;fill-opacity:1" />
          <path
             id="path6219"
             d="m 5,180.548 c -2.761,0 -5,2.238 -5,5 l 353.55339,353.55339 c 0,-2.762 2.239,-5 5,-5 z"
             inkscape:connector-curvature="0"
             style="fill:#310c58;fill-opacity:1" />
          <path
             id="path6221"
             d="m 0,185.548 0,5.715 353.55339,353.55339 0,-5.715 z"
             inkscape:connector-curvature="0"
             style="fill:#310c58;fill-opacity:1" />
          <path
             id="path6223"
             d="m 0,191.263 c 0,1.38087 0.55964866,2.63077 1.4643793,3.5355 L 355.01777,548.35189 c -0.90473,-0.90473 -1.46438,-2.15462 -1.46438,-3.5355 z"
             inkscape:connector-curvature="0"
             style="fill:#310c58;fill-opacity:1" />
          <path
             id="path6225"
             d="M 1.4643793,194.7985 C 2.3692737,195.7034 3.619375,196.263 5,196.263 l 353.55339,353.55339 c -1.38062,0 -2.63073,-0.5596 -3.53562,-1.4645 z"
             inkscape:connector-curvature="0"
             style="fill:#310c58;fill-opacity:1" />
          <path
             id="path6227"
             d="m 5,196.263 92.384,0 353.55339,353.55339 -92.384,0 z"
             inkscape:connector-curvature="0"
             style="fill:#310c58;fill-opacity:1" />
          <path
             id="path6229"
             d="m 97.384,196.263 c 2.761,0 5,-2.238 5,-5 l 353.55339,353.55339 c 0,2.762 -2.239,5 -5,5 z"
             inkscape:connector-curvature="0"
             style="fill:#310c58;fill-opacity:1" />
          <path
             id="path6231"
             d="m 102.384,191.263 0,-5.715 353.55339,353.55339 0,5.715 z"
             inkscape:connector-curvature="0"
             style="fill:#310c58;fill-opacity:1" />
          <path
             id="path6233"
             d="m 102.384,185.548 c 0,-1.38087 -0.55965,-2.63077 -1.46438,-3.5355 l 353.55339,353.55339 c 0.90473,0.90473 1.46438,2.15463 1.46438,3.5355 z"
             inkscape:connector-curvature="0"
             style="fill:#310c58;fill-opacity:1" />
          <path
             id="path6235"
             d="m 100.91962,182.0125 c -0.90489,-0.9049 -2.154995,-1.4645 -3.53562,-1.4645 l 353.55339,353.55339 c 1.38063,0 2.63073,0.5596 3.53562,1.4645 z"
             inkscape:connector-curvature="0"
             style="fill:#310c58;fill-opacity:1" />
          <path
             id="path6237"
             d="m 97.384,180.548 -5.65,0 353.55339,353.55339 5.65,0 z"
             inkscape:connector-curvature="0"
             style="fill:#310c58;fill-opacity:1" />
          <path
             id="path6239"
             d="m 91.734,180.548 0,-37.916 353.55339,353.55339 0,37.916 z"
             inkscape:connector-curvature="0"
             style="fill:#310c58;fill-opacity:1" />
          <path
             id="path6241"
             d="m 91.734,142.632 c 0,-1.38087 -0.559649,-2.63077 -1.464379,-3.5355 L 443.82301,492.64989 c 0.90473,0.90473 1.46438,2.15463 1.46438,3.5355 z"
             inkscape:connector-curvature="0"
             style="fill:#310c58;fill-opacity:1" />
          <path
             id="path6243"
             d="M 90.269621,139.0965 C 89.364726,138.1916 88.114625,137.632 86.734,137.632 l 353.55339,353.55339 c 1.38063,0 2.63073,0.5596 3.53562,1.4645 z"
             inkscape:connector-curvature="0"
             style="fill:#310c58;fill-opacity:1" />
          <path
             id="path6245"
             d="m 86.734,137.632 -15.191,0 353.55339,353.55339 15.191,0 z"
             inkscape:connector-curvature="0"
             style="fill:#310c58;fill-opacity:1" />
          <path
             id="path6247"
             d="m 71.543,137.632 36.014,-19.967 353.55339,353.55339 -36.014,19.967 z"
             inkscape:connector-curvature="0"
             style="fill:#310c58;fill-opacity:1" />
          <path
             id="path6249"
             d="m 107.557,117.665 36.014,19.967 353.55339,353.55339 -36.014,-19.967 z"
             inkscape:connector-curvature="0"
             style="fill:#310c58;fill-opacity:1" />
          <path
             id="path6251"
             d="m 143.571,137.632 -15.726,0 353.55339,353.55339 15.726,0 z"
             inkscape:connector-curvature="0"
             style="fill:#310c58;fill-opacity:1" />
          <path
             id="path6253"
             d="m 127.845,137.632 c -2.761,0 -5,2.238 -5,5 l 353.55339,353.55339 c 0,-2.762 2.239,-5 5,-5 z"
             inkscape:connector-curvature="0"
             style="fill:#310c58;fill-opacity:1" />
          <path
             id="path6255"
             d="m 122.845,142.632 0,37.916 353.55339,353.55339 0,-37.916 z"
             inkscape:connector-curvature="0"
             style="fill:#310c58;fill-opacity:1" />
          <path
             id="path6257"
             d="m 122.845,180.548 -5.65,0 353.55339,353.55339 5.65,0 z"
             inkscape:connector-curvature="0"
             style="fill:#310c58;fill-opacity:1" />
          <path
             id="path6259"
             d="m 117.195,180.548 c -2.761,0 -5,2.238 -5,5 l 353.55339,353.55339 c 0,-2.762 2.239,-5 5,-5 z"
             inkscape:connector-curvature="0"
             style="fill:#310c58;fill-opacity:1" />
          <path
             id="path6261"
             d="m 112.195,185.548 0,5.715 353.55339,353.55339 0,-5.715 z"
             inkscape:connector-curvature="0"
             style="fill:#310c58;fill-opacity:1" />
          <path
             id="path6263"
             d="m 112.195,191.263 c 0,1.38087 0.55965,2.63077 1.46438,3.5355 l 353.55339,353.55339 c -0.90473,-0.90473 -1.46438,-2.15462 -1.46438,-3.5355 z"
             inkscape:connector-curvature="0"
             style="fill:#310c58;fill-opacity:1" />
          <path
             id="path6265"
             d="m 113.65938,194.7985 c 0.90489,0.9049 2.155,1.4645 3.53562,1.4645 l 353.55339,353.55339 c -1.38062,0 -2.63073,-0.5596 -3.53562,-1.4645 z"
             inkscape:connector-curvature="0"
             style="fill:#310c58;fill-opacity:1" />
          <path
             id="path6267"
             d="m 117.195,196.263 92.384,0 353.55339,353.55339 -92.384,0 z"
             inkscape:connector-curvature="0"
             style="fill:#310c58;fill-opacity:1" />
          <path
             id="path6269"
             d="m 209.579,196.263 c 2.761,0 5,-2.238 5,-5 l 353.55339,353.55339 c 0,2.762 -2.239,5 -5,5 z"
             inkscape:connector-curvature="0"
             style="fill:#310c58;fill-opacity:1" />
          <path
             id="path6271"
             d="m 214.579,191.263 0,-5.715 353.55339,353.55339 0,5.715 z"
             inkscape:connector-curvature="0"
             style="fill:#310c58;fill-opacity:1" />
          <path
             id="path6273"
             d="m 214.579,185.548 c 0,-1.3815 -0.55975,-2.63175 -1.46463,-3.53663 l 353.5534,353.5534 c 0.90487,0.90487 1.46462,2.15512 1.46462,3.53662 z"
             inkscape:connector-curvature="0"
             style="fill:#310c58;fill-opacity:1" />
          <path
             id="path6275"
             d="M 213.11437,182.01137 C 212.2095,181.1065 210.9595,180.547 209.579,180.547 l 353.55339,353.55339 c 1.3805,0 2.6305,0.5595 3.53538,1.46438 z"
             inkscape:connector-curvature="0"
             style="fill:#310c58;fill-opacity:1" />
          <path
             id="path6277"
             d="m 77.015,28.317 61.083,0 353.55339,353.55339 -61.083,0 z"
             inkscape:connector-curvature="0"
             style="fill:#310c58;fill-opacity:1" />
          <path
             id="path6279"
             d="m 138.098,28.317 0,32.01 353.55339,353.55339 0,-32.01 z"
             inkscape:connector-curvature="0"
             style="fill:#310c58;fill-opacity:1" />
          <path
             id="path6281"
             d="m 138.098,60.327 -61.083,0 353.55339,353.55339 61.083,0 z"
             inkscape:connector-curvature="0"
             style="fill:#310c58;fill-opacity:1" />
          <path
             id="path6283"
             d="m 77.015,60.327 0,-32.01 353.55339,353.55339 0,32.01 z"
             inkscape:connector-curvature="0"
             style="fill:#310c58;fill-opacity:1" />
          <path
             id="path6285"
             d="m 81.734,180.547 -61.084,0 353.55339,353.55339 61.084,0 z"
             inkscape:connector-curvature="0"
             style="fill:#310c58;fill-opacity:1" />
          <path
             id="path6287"
             d="m 20.65,180.547 0,-32.916 353.55339,353.55339 0,32.916 z"
             inkscape:connector-curvature="0"
             style="fill:#310c58;fill-opacity:1" />
          <path
             id="path6289"
             d="m 20.65,147.631 61.084,0 353.55339,353.55339 -61.084,0 z"
             inkscape:connector-curvature="0"
             style="fill:#310c58;fill-opacity:1" />
          <path
             id="path6291"
             d="m 81.734,147.631 0,32.916 353.55339,353.55339 0,-32.916 z"
             inkscape:connector-curvature="0"
             style="fill:#310c58;fill-opacity:1" />
          <path
             id="path6293"
             d="m 132.845,147.631 61.083,0 353.55339,353.55339 -61.083,0 z"
             inkscape:connector-curvature="0"
             style="fill:#310c58;fill-opacity:1" />
          <path
             id="path6295"
             d="m 193.928,147.631 0,32.07 353.55339,353.55339 0,-32.07 z"
             inkscape:connector-curvature="0"
             style="fill:#310c58;fill-opacity:1" />
          <path
             id="path6297"
             d="m 193.928,179.701 -61.083,0 353.55339,353.55339 61.083,0 z"
             inkscape:connector-curvature="0"
             style="fill:#310c58;fill-opacity:1" />
          <path
             id="path6299"
             d="m 132.845,179.701 0,-32.07 353.55339,353.55339 0,32.07 z"
             inkscape:connector-curvature="0"
             style="fill:#310c58;fill-opacity:1" />
        </g>
        <path
           style="fill:#310c58;fill-opacity:1"
           inkscape:connector-curvature="0"
           d="m 209.579,180.547 -5.651,0 0,-37.916 c 0,-2.762 -2.239,-5 -5,-5 l -35.349,0 c -0.365,-0.409 -0.786,-0.777 -1.292,-1.058 l -49.73,-27.572 0,-32.054 41.192,0 c 2.761,0 5,-2.238 5,-5 l 0,-5.714 c 0,-2.762 -2.239,-5 -5,-5 l -5.65,0 0,-37.916 c 0,-2.762 -2.239,-5 -5,-5 l -71.084,0 c -2.761,0 -5,2.238 -5,5 l 0,37.916 -5.65,0 c -2.761,0 -5,2.238 -5,5 l 0,5.714 c 0,2.762 2.239,5 5,5 l 41.192,0 0,32.055 -49.73,27.572 c -0.506,0.281 -0.927,0.649 -1.292,1.058 l -35.885,0 c -2.761,0 -5,2.238 -5,5 l 0,37.916 -5.65,0 c -2.761,0 -5,2.238 -5,5 l 0,5.715 c 0,2.762 2.239,5 5,5 l 92.384,0 c 2.761,0 5,-2.238 5,-5 l 0,-5.715 c 0,-2.762 -2.239,-5 -5,-5 l -5.65,0 0,-37.916 c 0,-2.762 -2.239,-5 -5,-5 l -15.191,0 36.014,-19.967 36.014,19.967 -15.726,0 c -2.761,0 -5,2.238 -5,5 l 0,37.916 -5.65,0 c -2.761,0 -5,2.238 -5,5 l 0,5.715 c 0,2.762 2.239,5 5,5 l 92.384,0 c 2.761,0 5,-2.238 5,-5 l 0,-5.715 c 0,-2.763 -2.239,-5.001 -5,-5.001 z M 77.015,28.317 l 61.083,0 0,32.01 -61.083,0 0,-32.01 z m 4.719,152.23 -61.084,0 0,-32.916 61.084,0 0,32.916 z m 51.111,-32.916 61.083,0 0,32.07 -61.083,0 0,-32.07 z"
           id="path6022" />
      </g>
    </g>
  </g>
  <g
     style="display:inline"
     inkscape:label="Layer 3"
     id="layer4"
     inkscape:groupmode="layer">
    <g
       id="g4421"
       transform="matrix(1.3048807,0,0,1.4049206,60,29.26607)"
       style="display:inline;fill:#ffffff">
      <path
         id="path4423"
         d="m 209.579,180.547 -5.651,0 0,-37.916 c 0,-2.762 -2.239,-5 -5,-5 l -35.349,0 c -0.365,-0.409 -0.786,-0.777 -1.292,-1.058 l -49.73,-27.572 0,-32.054 41.192,0 c 2.761,0 5,-2.238 5,-5 l 0,-5.714 c 0,-2.762 -2.239,-5 -5,-5 l -5.65,0 0,-37.916 c 0,-2.762 -2.239,-5 -5,-5 l -71.084,0 c -2.761,0 -5,2.238 -5,5 l 0,37.916 -5.65,0 c -2.761,0 -5,2.238 -5,5 l 0,5.714 c 0,2.762 2.239,5 5,5 l 41.192,0 0,32.055 -49.73,27.572 c -0.506,0.281 -0.927,0.649 -1.292,1.058 l -35.885,0 c -2.761,0 -5,2.238 -5,5 l 0,37.916 -5.65,0 c -2.761,0 -5,2.238 -5,5 l 0,5.715 c 0,2.762 2.239,5 5,5 l 92.384,0 c 2.761,0 5,-2.238 5,-5 l 0,-5.715 c 0,-2.762 -2.239,-5 -5,-5 l -5.65,0 0,-37.916 c 0,-2.762 -2.239,-5 -5,-5 l -15.191,0 36.014,-19.967 36.014,19.967 -15.726,0 c -2.761,0 -5,2.238 -5,5 l 0,37.916 -5.65,0 c -2.761,0 -5,2.238 -5,5 l 0,5.715 c 0,2.762 2.239,5 5,5 l 92.384,0 c 2.761,0 5,-2.238 5,-5 l 0,-5.715 c 0,-2.763 -2.239,-5.001 -5,-5.001 z M 77.015,28.317 l 61.083,0 0,32.01 -61.083,0 0,-32.01 z m 4.719,152.23 -61.084,0 0,-32.916 61.084,0 0,32.916 z m 51.111,-32.916 61.083,0 0,32.07 -61.083,0 0,-32.07 z"
         inkscape:connector-curvature="0"
         style="fill:#ffffff" />
      <g
         id="g4425"
         style="fill:#ffffff" />
      <g
         id="g4427"
         style="fill:#ffffff" />
      <g
         id="g4429"
         style="fill:#ffffff" />
      <g
         id="g4431"
         style="fill:#ffffff" />
      <g
         id="g4433"
         style="fill:#ffffff" />
      <g
         id="g4435"
         style="fill:#ffffff" />
      <g
         id="g4437"
         style="fill:#ffffff" />
      <g
         id="g4439"
         style="fill:#ffffff" />
      <g
         id="g4441"
         style="fill:#ffffff" />
      <g
         id="g4443"
         style="fill:#ffffff" />
      <g
         id="g4445"
         style="fill:#ffffff" />
      <g
         id="g4447"
         style="fill:#ffffff" />
      <g
         id="g4449"
         style="fill:#ffffff" />
      <g
         id="g4451"
         style="fill:#ffffff" />
      <g
         id="g4453"
         style="fill:#ffffff" />
    </g>
  </g>
</svg>
