<?xml version="1.0" encoding="UTF-8" standalone="no"?>
<!-- Created with Inkscape (http://www.inkscape.org/) -->

<svg
   xmlns:dc="http://purl.org/dc/elements/1.1/"
   xmlns:cc="http://creativecommons.org/ns#"
   xmlns:rdf="http://www.w3.org/1999/02/22-rdf-syntax-ns#"
   xmlns:svg="http://www.w3.org/2000/svg"
   xmlns="http://www.w3.org/2000/svg"
   xmlns:sodipodi="http://sodipodi.sourceforge.net/DTD/sodipodi-0.dtd"
   xmlns:inkscape="http://www.inkscape.org/namespaces/inkscape"
   width="400"
   height="400"
   viewBox="0 0 399.99999 400.00001"
   id="svg3566"
   version="1.1"
   inkscape:version="0.91 r13725"
   sodipodi:docname="casecategory_programming.svg">
  <sodipodi:namedview
     id="base"
     pagecolor="#ffffff"
     bordercolor="#666666"
     borderopacity="1.0"
     inkscape:pageopacity="0.0"
     inkscape:pageshadow="2"
     inkscape:zoom="1.4142136"
     inkscape:cx="92.211676"
     inkscape:cy="245.73298"
     inkscape:document-units="px"
     inkscape:current-layer="layer2"
     showgrid="false"
     units="px"
     inkscape:window-width="1920"
     inkscape:window-height="1137"
     inkscape:window-x="1912"
     inkscape:window-y="-8"
     inkscape:window-maximized="1" />
  <defs
     id="defs3568">
    <clipPath
       id="clipPath5130"
       clipPathUnits="userSpaceOnUse">
      <ellipse
         ry="212.5"
         rx="213.23529"
         style="display:inline;fill:#a4c639;fill-opacity:1"
         cx="494.71536"
         cy="580.85931"
         id="circle5132" />
    </clipPath>
    <clipPath
       clipPathUnits="userSpaceOnUse"
       id="clipPath5067">
      <ellipse
         style="display:inline;fill:#a700ae;fill-opacity:1"
         cx="206.498"
         cy="206.49803"
         id="circle5069"
         rx="294.99713"
         ry="296.93335" />
    </clipPath>
  </defs>
  <metadata
     id="metadata3571">
    <rdf:RDF>
      <cc:Work
         rdf:about="">
        <dc:format>image/svg+xml</dc:format>
        <dc:type
           rdf:resource="http://purl.org/dc/dcmitype/StillImage" />
        <dc:title />
      </cc:Work>
    </rdf:RDF>
  </metadata>
  <g
     inkscape:label="Layer 1"
     inkscape:groupmode="layer"
     id="layer1"
     transform="translate(0,-652.36216)"
     style="display:inline">
    <circle
       id="circle3938"
       cy="852.36218"
       cx="200"
       r="200"
       style="fill:#a700ae;fill-opacity:1" />
  </g>
  <g
     inkscape:groupmode="layer"
     id="layer2"
     inkscape:label="Layer 2"
     style="display:inline"
     transform="translate(0,-652.36216)">
    <g
       style="display:inline;fill:#730078;fill-opacity:1"
       transform="matrix(0.67797267,0,0,0.67355186,60,713.27505)"
       id="g4463"
       clip-path="url(#clipPath5067)">
      <g
         style="fill:#730078;fill-opacity:1"
         id="g4413">
        <g
           style="fill:#730078;fill-opacity:1"
           id="g4415">
          <g
             style="fill:#730078;fill-opacity:1"
             id="g4417">
            <path
               style="fill:#730078;fill-opacity:1"
               inkscape:connector-curvature="0"
               d="m 94.591,176.637 63.084,29.336 c 1.631,0.755 3.367,1.138 5.162,1.138 2.338,0 4.616,-0.664 6.597,-1.924 3.548,-2.267 5.666,-6.13 5.666,-10.335 l 0,-0.322 c 0,-4.751 -2.785,-9.115 -7.096,-11.119 l -39.455,-18.33 39.456,-18.334 c 4.31,-2.004 7.095,-6.369 7.095,-11.118 l 0,-0.319 c 0,-4.211 -2.119,-8.074 -5.665,-10.334 -1.962,-1.254 -4.247,-1.916 -6.606,-1.916 -1.778,0 -3.563,0.391 -5.16,1.133 L 94.59,153.525 c -4.308,2.005 -7.091,6.369 -7.091,11.117 l 0,0.878 c -10e-4,4.742 2.781,9.105 7.092,11.117 z"
               id="path4421" />
            <path
               style="fill:#730078;fill-opacity:1"
               inkscape:connector-curvature="0"
               d="m 175.662,236.389 c 2.301,3.149 6.002,5.029 9.901,5.029 l 0.315,0 c 5.352,0 10.042,-3.426 11.672,-8.516 l 41.557,-128.76 c 1.192,-3.717 0.53,-7.818 -1.771,-10.974 -2.301,-3.149 -6.002,-5.03 -9.901,-5.03 l -0.314,0 c -5.354,0 -10.048,3.426 -11.679,8.516 L 173.88,225.425 c -1.182,3.72 -0.516,7.817 1.782,10.964 z"
               id="path4423" />
            <path
               style="fill:#730078;fill-opacity:1"
               inkscape:connector-curvature="0"
               d="m 237.896,135.628 c 0,4.746 2.782,9.11 7.095,11.122 l 39.455,18.33 -39.455,18.33 c -4.311,2.004 -7.096,6.368 -7.096,11.119 l 0,0.322 c 0,4.205 2.117,8.068 5.669,10.336 1.974,1.258 4.254,1.923 6.595,1.923 1.792,0 3.527,-0.383 5.169,-1.142 l 63.081,-29.335 c 4.307,-2.009 7.089,-6.372 7.089,-11.115 l 0,-0.878 c 0,-4.748 -2.783,-9.112 -7.093,-11.117 l -63.08,-29.334 c -1.591,-0.739 -3.373,-1.131 -5.152,-1.131 -2.358,0 -4.644,0.662 -6.604,1.912 -3.554,2.264 -5.673,6.127 -5.673,10.338 l 0,0.32 0,0 z"
               id="path4425" />
            <g
               id="g4889"
               style="fill:#730078;fill-opacity:1">
              <g
                 id="g4891"
                 style="fill:#730078;fill-opacity:1">
                <path
                   id="path4893"
                   d="M392.996 28.338L20.0 28.338L373.553390593 381.891390593L746.549390593 381.891390593Z"
                   style="fill:#730078;fill-opacity:1" />
                <path
                   id="path4895"
                   d="M20.0 28.338C8.953 28.338 0.0 37.292 0.0 48.338L353.553390593 401.891390593C353.553390593 390.845390593 362.506390593 381.891390593 373.553390593 381.891390593Z"
                   style="fill:#730078;fill-opacity:1" />
                <path
                   id="path4897"
                   d="M0.0 48.338L0.0 282.338L353.553390593 635.891390593L353.553390593 401.891390593Z"
                   style="fill:#730078;fill-opacity:1" />
                <path
                   id="path4899"
                   d="M0.0 282.338C0.0 287.861124994 2.23835131151 292.861226316 5.85762072191 296.480495726L359.411011315 650.033886319C355.791741905 646.414616909 353.553390593 641.414515588 353.553390593 635.891390593Z"
                   style="fill:#730078;fill-opacity:1" />
                <path
                   id="path4901"
                   d="M5.85762072191 296.480495726C9.47672631628 300.099601321 14.4766250057 302.338 20.0 302.338L373.553390593 655.891390593C368.030015599 655.891390593 363.03011691 653.652991914 359.411011315 650.033886319Z"
                   style="fill:#730078;fill-opacity:1" />
                <path
                   id="path4903"
                   d="M20.0 302.338L159.498 302.338L513.051390593 655.891390593L373.553390593 655.891390593Z"
                   style="fill:#730078;fill-opacity:1" />
                <path
                   id="path4905"
                   d="M159.498 302.338L159.498 347.658L513.051390593 701.211390593L513.051390593 655.891390593Z"
                   style="fill:#730078;fill-opacity:1" />
                <path
                   id="path4907"
                   d="M159.498 347.658L105.215 347.658L458.768390593 701.211390593L513.051390593 701.211390593Z"
                   style="fill:#730078;fill-opacity:1" />
                <path
                   id="path4909"
                   d="M105.215 347.658C95.014 347.658 86.715 355.957 86.715 366.158L440.268390593 719.711390593C440.268390593 709.510390593 448.567390593 701.211390593 458.768390593 701.211390593Z"
                   style="fill:#730078;fill-opacity:1" />
                <path
                   id="path4911"
                   d="M86.715 366.158C86.715 371.112771429 88.6728865306 375.618826122 91.8556342624 378.943138752L445.409024856 732.496529345C442.226277124 729.172216716 440.268390593 724.666162022 440.268390593 719.711390593Z"
                   style="fill:#730078;fill-opacity:1" />
                <path
                   id="path4913"
                   d="M91.8556342624 378.943138752C95.225602449 382.462999184 99.9687714286 384.658 105.215 384.658L458.768390593 738.211390593C453.522162022 738.211390593 448.778993042 736.016389777 445.409024856 732.496529345Z"
                   style="fill:#730078;fill-opacity:1" />
                <path
                   id="path4915"
                   d="M105.215 384.658L307.781 384.658L661.334390593 738.211390593L458.768390593 738.211390593Z"
                   style="fill:#730078;fill-opacity:1" />
                <path
                   id="path4917"
                   d="M307.781 384.658C317.982 384.658 326.281 376.359 326.281 366.158L679.834390593 719.711390593C679.834390593 729.912390593 671.535390593 738.211390593 661.334390593 738.211390593Z"
                   style="fill:#730078;fill-opacity:1" />
                <path
                   id="path4919"
                   d="M326.281 366.158C326.281 355.957 317.982 347.658 307.781 347.658L661.334390593 701.211390593C671.535390593 701.211390593 679.834390593 709.510390593 679.834390593 719.711390593Z"
                   style="fill:#730078;fill-opacity:1" />
                <path
                   id="path4921"
                   d="M307.781 347.658L253.498 347.658L607.051390593 701.211390593L661.334390593 701.211390593Z"
                   style="fill:#730078;fill-opacity:1" />
                <path
                   id="path4923"
                   d="M253.498 347.658L253.498 302.338L607.051390593 655.891390593L607.051390593 701.211390593Z"
                   style="fill:#730078;fill-opacity:1" />
                <path
                   id="path4925"
                   d="M253.498 302.338L392.996 302.338L746.549390593 655.891390593L607.051390593 655.891390593Z"
                   style="fill:#730078;fill-opacity:1" />
                <path
                   id="path4927"
                   d="M392.996 302.338C404.043 302.338 412.996 293.384 412.996 282.338L766.549390593 635.891390593C766.549390593 646.937390593 757.596390593 655.891390593 746.549390593 655.891390593Z"
                   style="fill:#730078;fill-opacity:1" />
                <path
                   id="path4929"
                   d="M412.996 282.338L412.996 48.338L766.549390593 401.891390593L766.549390593 635.891390593Z"
                   style="fill:#730078;fill-opacity:1" />
                <path
                   id="path4931"
                   d="M412.996 48.338C412.996 42.8148750057 410.757648688 37.8147736842 407.138379278 34.1955042738L760.691769871 387.748894867C764.311039282 391.368164278 766.549390593 396.368265599 766.549390593 401.891390593Z"
                   style="fill:#730078;fill-opacity:1" />
                <path
                   id="path4933"
                   d="M407.138379278 34.1955042738C403.519273684 30.5763986795 398.519374994 28.338 392.996 28.338L746.549390593 381.891390593C752.072765588 381.891390593 757.072664277 384.129789273 760.691769871 387.748894867Z"
                   style="fill:#730078;fill-opacity:1" />
                <path
                   id="path4935"
                   d="M382.996 272.338L30.0 272.338L383.553390593 625.891390593L736.549390593 625.891390593Z"
                   style="fill:#730078;fill-opacity:1" />
                <path
                   id="path4937"
                   d="M30.0 272.338L30.0 58.338L383.553390593 411.891390593L383.553390593 625.891390593Z"
                   style="fill:#730078;fill-opacity:1" />
                <path
                   id="path4939"
                   d="M30.0 58.338L382.996 58.338L736.549390593 411.891390593L383.553390593 411.891390593Z"
                   style="fill:#730078;fill-opacity:1" />
                <path
                   id="path4941"
                   d="M382.996 58.338L382.996 272.338L736.549390593 625.891390593L736.549390593 411.891390593Z"
                   style="fill:#730078;fill-opacity:1" />
              </g>
              <path
                 style="fill:#730078;fill-opacity:1"
                 inkscape:connector-curvature="0"
                 d="M 392.996,28.338 20,28.338 c -11.047,0 -20,8.954 -20,20 l 0,234 c 0,11.046 8.953,20 20,20 l 139.498,0 0,45.32 -54.283,0 c -10.201,0 -18.5,8.299 -18.5,18.5 0,10.201 8.299,18.5 18.5,18.5 l 202.566,0 c 10.201,0 18.5,-8.299 18.5,-18.5 0,-10.201 -8.299,-18.5 -18.5,-18.5 l -54.283,0 0,-45.32 139.498,0 c 11.047,0 20,-8.954 20,-20 l 0,-234 c 0,-11.046 -8.953,-20 -20,-20 z m -10,244 -352.996,0 0,-214 352.996,0 0,214 z"
                 id="path4419" />
            </g>
          </g>
        </g>
      </g>
      <g
         style="fill:#730078;fill-opacity:1"
         id="g4427" />
      <g
         style="fill:#730078;fill-opacity:1"
         id="g4429" />
      <g
         style="fill:#730078;fill-opacity:1"
         id="g4431" />
      <g
         style="fill:#730078;fill-opacity:1"
         id="g4433" />
      <g
         style="fill:#730078;fill-opacity:1"
         id="g4435" />
      <g
         style="fill:#730078;fill-opacity:1"
         id="g4437" />
      <g
         style="fill:#730078;fill-opacity:1"
         id="g4439" />
      <g
         style="fill:#730078;fill-opacity:1"
         id="g4441" />
      <g
         style="fill:#730078;fill-opacity:1"
         id="g4443" />
      <g
         style="fill:#730078;fill-opacity:1"
         id="g4445" />
      <g
         style="fill:#730078;fill-opacity:1"
         id="g4447" />
      <g
         style="fill:#730078;fill-opacity:1"
         id="g4449" />
      <g
         style="fill:#730078;fill-opacity:1"
         id="g4451" />
      <g
         style="fill:#730078;fill-opacity:1"
         id="g4453" />
      <g
         style="fill:#730078;fill-opacity:1"
         id="g4455" />
    </g>
  </g>
  <g
     inkscape:groupmode="layer"
     id="layer4"
     inkscape:label="Layer 3"
     style="display:inline">
    <g
       id="g4804"
       transform="matrix(0.67797267,0,0,0.67355186,60,60.91289)"
       style="display:inline;fill:#ffffff">
      <g
         id="g4806"
         style="fill:#ffffff">
        <g
           id="g4808"
           style="fill:#ffffff">
          <g
             id="g4810"
             style="fill:#ffffff">
            <path
               id="path4812"
               d="M 392.996,28.338 20,28.338 c -11.047,0 -20,8.954 -20,20 l 0,234 c 0,11.046 8.953,20 20,20 l 139.498,0 0,45.32 -54.283,0 c -10.201,0 -18.5,8.299 -18.5,18.5 0,10.201 8.299,18.5 18.5,18.5 l 202.566,0 c 10.201,0 18.5,-8.299 18.5,-18.5 0,-10.201 -8.299,-18.5 -18.5,-18.5 l -54.283,0 0,-45.32 139.498,0 c 11.047,0 20,-8.954 20,-20 l 0,-234 c 0,-11.046 -8.953,-20 -20,-20 z m -10,244 -352.996,0 0,-214 352.996,0 0,214 z"
               inkscape:connector-curvature="0"
               style="fill:#ffffff" />
            <path
               id="path4814"
               d="m 94.591,176.637 63.084,29.336 c 1.631,0.755 3.367,1.138 5.162,1.138 2.338,0 4.616,-0.664 6.597,-1.924 3.548,-2.267 5.666,-6.13 5.666,-10.335 l 0,-0.322 c 0,-4.751 -2.785,-9.115 -7.096,-11.119 l -39.455,-18.33 39.456,-18.334 c 4.31,-2.004 7.095,-6.369 7.095,-11.118 l 0,-0.319 c 0,-4.211 -2.119,-8.074 -5.665,-10.334 -1.962,-1.254 -4.247,-1.916 -6.606,-1.916 -1.778,0 -3.563,0.391 -5.16,1.133 L 94.59,153.525 c -4.308,2.005 -7.091,6.369 -7.091,11.117 l 0,0.878 c -10e-4,4.742 2.781,9.105 7.092,11.117 z"
               inkscape:connector-curvature="0"
               style="fill:#ffffff" />
            <path
               id="path4816"
               d="m 175.662,236.389 c 2.301,3.149 6.002,5.029 9.901,5.029 l 0.315,0 c 5.352,0 10.042,-3.426 11.672,-8.516 l 41.557,-128.76 c 1.192,-3.717 0.53,-7.818 -1.771,-10.974 -2.301,-3.149 -6.002,-5.03 -9.901,-5.03 l -0.314,0 c -5.354,0 -10.048,3.426 -11.679,8.516 L 173.88,225.425 c -1.182,3.72 -0.516,7.817 1.782,10.964 z"
               inkscape:connector-curvature="0"
               style="fill:#ffffff" />
            <path
               id="path4818"
               d="m 237.896,135.628 c 0,4.746 2.782,9.11 7.095,11.122 l 39.455,18.33 -39.455,18.33 c -4.311,2.004 -7.096,6.368 -7.096,11.119 l 0,0.322 c 0,4.205 2.117,8.068 5.669,10.336 1.974,1.258 4.254,1.923 6.595,1.923 1.792,0 3.527,-0.383 5.169,-1.142 l 63.081,-29.335 c 4.307,-2.009 7.089,-6.372 7.089,-11.115 l 0,-0.878 c 0,-4.748 -2.783,-9.112 -7.093,-11.117 l -63.08,-29.334 c -1.591,-0.739 -3.373,-1.131 -5.152,-1.131 -2.358,0 -4.644,0.662 -6.604,1.912 -3.554,2.264 -5.673,6.127 -5.673,10.338 l 0,0.32 0,0 z"
               inkscape:connector-curvature="0"
               style="fill:#ffffff" />
          </g>
        </g>
      </g>
      <g
         id="g4820"
         style="fill:#ffffff" />
      <g
         id="g4822"
         style="fill:#ffffff" />
      <g
         id="g4824"
         style="fill:#ffffff" />
      <g
         id="g4826"
         style="fill:#ffffff" />
      <g
         id="g4828"
         style="fill:#ffffff" />
      <g
         id="g4830"
         style="fill:#ffffff" />
      <g
         id="g4832"
         style="fill:#ffffff" />
      <g
         id="g4834"
         style="fill:#ffffff" />
      <g
         id="g4836"
         style="fill:#ffffff" />
      <g
         id="g4838"
         style="fill:#ffffff" />
      <g
         id="g4840"
         style="fill:#ffffff" />
      <g
         id="g4842"
         style="fill:#ffffff" />
      <g
         id="g4844"
         style="fill:#ffffff" />
      <g
         id="g4846"
         style="fill:#ffffff" />
      <g
         id="g4848"
         style="fill:#ffffff" />
    </g>
  </g>
</svg>
